M48
; DRILL file {KiCad 6.0.7} date Tue 16 Aug 2022 08:23:45 PM
; FORMAT={-:-/ absolute / inch / decimal}
; #@! TF.CreationDate,2022-08-16T20:23:45-07:00
; #@! TF.GenerationSoftware,Kicad,Pcbnew,6.0.7
; #@! TF.FileFunction,Plated,1,4,PTH
FMAT,2
INCH
; #@! TA.AperFunction,Plated,PTH,ComponentDrill
T1C0.0295
; #@! TA.AperFunction,Plated,PTH,ComponentDrill
T2C0.0315
; #@! TA.AperFunction,Plated,PTH,ComponentDrill
T3C0.0394
; #@! TA.AperFunction,Plated,PTH,ComponentDrill
T4C0.0433
; #@! TA.AperFunction,Plated,PTH,ComponentDrill
T5C0.0866
%
G90
G05
T1
X5.15Y-3.8
X5.2Y-3.8
X5.25Y-3.8
X5.65Y-3.8
X5.7Y-3.8
X5.75Y-3.8
X6.15Y-3.8
X6.2Y-3.8
X6.25Y-3.8
X6.65Y-3.8
X6.7Y-3.8
X6.75Y-3.8
T2
X5.0Y-2.8952
X5.0Y-3.4952
X5.05Y-3.65
X5.1Y-2.8952
X5.1Y-3.4952
X5.1546Y-1.8504
X5.1546Y-2.1504
X5.2Y-2.8952
X5.2Y-3.4952
X5.3Y-1.85
X5.3Y-2.15
X5.3Y-2.8952
X5.3Y-3.4952
X5.35Y-3.65
X5.4Y-1.85
X5.4Y-2.15
X5.4Y-2.35
X5.4Y-2.65
X5.4Y-2.8952
X5.4Y-3.4952
X5.5Y-1.85
X5.5Y-2.15
X5.5Y-2.8952
X5.5Y-3.4952
X5.55Y-2.35
X5.55Y-2.65
X5.55Y-3.65
X5.6Y-1.85
X5.6Y-2.15
X5.6Y-2.8952
X5.6Y-3.4952
X5.6961Y-2.35
X5.6961Y-2.65
X5.7Y-1.85
X5.7Y-2.15
X5.7Y-2.8952
X5.7Y-3.4952
X5.8Y-1.85
X5.8Y-2.15
X5.8Y-2.8952
X5.8Y-3.4952
X5.85Y-2.35
X5.85Y-2.65
X5.85Y-3.65
X5.9Y-1.85
X5.9Y-2.15
X5.9Y-2.8952
X5.9Y-3.4952
X6.0Y-1.85
X6.0Y-2.15
X6.0Y-2.35
X6.0Y-2.65
X6.0Y-2.8952
X6.0Y-3.4952
X6.05Y-3.65
X6.1Y-1.85
X6.1Y-2.15
X6.1Y-2.8952
X6.1Y-3.4952
X6.15Y-2.35
X6.15Y-2.65
X6.2Y-1.85
X6.2Y-2.15
X6.2Y-2.8952
X6.2Y-3.4952
X6.3Y-1.85
X6.3Y-2.15
X6.3Y-2.35
X6.3Y-2.65
X6.3Y-2.8952
X6.3Y-3.4952
X6.3Y-4.1
X6.35Y-3.65
X6.4Y-1.85
X6.4Y-2.15
X6.4Y-2.8952
X6.4Y-3.4952
X6.45Y-2.35
X6.45Y-2.65
X6.5Y-1.85
X6.5Y-2.15
X6.5Y-2.8952
X6.5Y-3.4952
X6.55Y-3.65
X6.6Y-1.85
X6.6Y-2.15
X6.6Y-2.8952
X6.6Y-3.4952
X6.6Y-4.1
X6.7Y-2.8952
X6.7Y-3.4952
X6.8Y-2.8952
X6.8Y-3.4952
X6.85Y-3.65
X6.9Y-2.8952
X6.9Y-3.4952
T3
X5.3Y-4.3
X5.4Y-4.3
X6.3Y-4.3
X6.4Y-4.3
X6.5Y-4.3
X6.6Y-4.3
T4
X4.372Y-2.6
X4.372Y-2.7772
X4.372Y-3.6114
X4.372Y-3.7886
X4.628Y-2.6
X4.628Y-2.7772
X4.628Y-3.6114
X4.628Y-3.7886
X7.272Y-2.6
X7.272Y-2.7772
X7.272Y-3.6114
X7.272Y-3.7886
X7.528Y-2.6
X7.528Y-2.7772
X7.528Y-3.6114
X7.528Y-3.7886
T5
X4.2047Y-1.7717
X4.2126Y-4.3307
X7.7559Y-1.7717
X7.7559Y-4.3307
T0
M30
