M48
; DRILL file {KiCad 6.0.7} date Fri 19 Aug 2022 08:38:59 PM
; FORMAT={-:-/ absolute / inch / decimal}
; #@! TF.CreationDate,2022-08-19T20:38:59-07:00
; #@! TF.GenerationSoftware,Kicad,Pcbnew,6.0.7
; #@! TF.FileFunction,Plated,1,2,PTH
FMAT,2
INCH
; #@! TA.AperFunction,Plated,PTH,ViaDrill
T1C0.0157
; #@! TA.AperFunction,Plated,PTH,ComponentDrill
T2C0.0295
; #@! TA.AperFunction,Plated,PTH,ComponentDrill
T3C0.0315
; #@! TA.AperFunction,Plated,PTH,ComponentDrill
T4C0.0394
; #@! TA.AperFunction,Plated,PTH,ComponentDrill
T5C0.0433
; #@! TA.AperFunction,Plated,PTH,ComponentDrill
T6C0.0866
%
G90
G05
T1
X5.1181Y-2.8543
X5.1181Y-3.248
X5.2165Y-2.8937
X5.2165Y-3.1693
X5.315Y-2.8937
X5.315Y-3.2087
X5.4134Y-2.9331
X5.4134Y-3.1693
X5.6299Y-2.8543
X5.6299Y-3.248
X5.7283Y-2.9724
X5.7283Y-3.1299
X5.8268Y-2.8937
X5.8268Y-3.2087
X5.9252Y-2.9331
X5.9252Y-3.1693
X6.1417Y-2.8543
X6.1417Y-3.248
X6.2402Y-2.9724
X6.2402Y-3.1299
X6.3386Y-1.7717
X6.3386Y-2.8937
X6.3386Y-3.2087
X6.437Y-2.9331
X6.437Y-3.1693
X6.5551Y-2.9724
X6.5551Y-3.1299
X6.7126Y-1.7717
X6.752Y-3.0118
X6.752Y-3.0906
X6.8307Y-2.1654
X6.9685Y-2.9724
X6.9685Y-3.1299
X7.0472Y-3.1299
X7.0669Y-2.9724
T2
X5.1665Y-3.6323
X5.2165Y-3.6323
X5.2665Y-3.6323
X5.6783Y-3.6323
X5.7283Y-3.6323
X5.7783Y-3.6323
X6.1902Y-3.6323
X6.2402Y-3.6323
X6.2902Y-3.6323
X6.702Y-3.6323
X6.752Y-3.6323
X6.802Y-3.6323
T3
X5.0165Y-2.7512
X5.0165Y-3.3512
X5.0665Y-3.4941
X5.1165Y-2.7512
X5.1165Y-3.3512
X5.2146Y-1.8618
X5.2146Y-2.1618
X5.2165Y-2.7512
X5.2165Y-3.3512
X5.3165Y-2.7512
X5.3165Y-3.3512
X5.3346Y-1.8614
X5.3346Y-2.1614
X5.3665Y-3.4941
X5.4165Y-2.7512
X5.4165Y-3.3512
X5.4346Y-1.8614
X5.4346Y-2.1614
X5.5283Y-2.7512
X5.5283Y-3.3512
X5.5346Y-1.8614
X5.5346Y-2.1614
X5.5709Y-2.2866
X5.5709Y-2.5866
X5.5783Y-3.4941
X5.6283Y-2.7512
X5.6283Y-3.3512
X5.6346Y-1.8614
X5.6346Y-2.1614
X5.689Y-2.2866
X5.689Y-2.5866
X5.7283Y-2.7512
X5.7283Y-3.3512
X5.7346Y-1.8614
X5.7346Y-2.1614
X5.8071Y-2.2866
X5.8071Y-2.5866
X5.8283Y-2.7512
X5.8283Y-3.3512
X5.8346Y-1.8614
X5.8346Y-2.1614
X5.8783Y-3.4941
X5.9252Y-2.2866
X5.9252Y-2.5866
X5.9283Y-2.7512
X5.9283Y-3.3512
X5.9346Y-1.8614
X5.9346Y-2.1614
X6.0346Y-1.8614
X6.0346Y-2.1614
X6.0402Y-2.7512
X6.0402Y-3.3512
X6.0433Y-2.2866
X6.0433Y-2.5866
X6.0902Y-3.4941
X6.1346Y-1.8614
X6.1346Y-2.1614
X6.1402Y-2.7512
X6.1402Y-3.3512
X6.1614Y-2.2866
X6.1614Y-2.5866
X6.2346Y-1.8614
X6.2346Y-2.1614
X6.2402Y-2.7512
X6.2402Y-3.3512
X6.2795Y-2.2866
X6.2795Y-2.5866
X6.3346Y-1.8614
X6.3346Y-2.1614
X6.3402Y-2.7512
X6.3402Y-3.3512
X6.3902Y-3.4941
X6.3976Y-2.2866
X6.3976Y-2.5866
X6.4346Y-1.8614
X6.4346Y-2.1614
X6.4402Y-2.7512
X6.4402Y-3.3512
X6.5346Y-1.8614
X6.5346Y-2.1614
X6.552Y-2.7512
X6.552Y-3.3512
X6.602Y-3.4941
X6.6217Y-4.2075
X6.6346Y-1.8614
X6.6346Y-2.1614
X6.652Y-2.7512
X6.652Y-3.3512
X6.752Y-2.7512
X6.752Y-3.3512
X6.852Y-2.7512
X6.852Y-3.3512
X6.902Y-3.4941
X6.9217Y-4.2075
X6.952Y-2.7512
X6.952Y-3.3512
T4
X5.147Y-4.3362
X5.247Y-4.3362
X6.6213Y-4.3374
X6.7213Y-4.3374
X6.8213Y-4.3374
X6.9213Y-4.3374
T5
X4.3587Y-2.4213
X4.3587Y-2.5984
X4.3602Y-3.5039
X4.3602Y-3.6811
X4.6146Y-2.4213
X4.6146Y-2.5984
X4.6161Y-3.5039
X4.6161Y-3.6811
X7.3508Y-2.4213
X7.3508Y-2.5984
X7.3524Y-3.5039
X7.3524Y-3.6811
X7.6067Y-2.4213
X7.6067Y-2.5984
X7.6083Y-3.5039
X7.6083Y-3.6811
T6
X4.2047Y-1.7717
X4.2126Y-4.3307
X7.7559Y-1.7717
X7.7559Y-4.3307
T0
M30
