%TF.GenerationSoftware,KiCad,Pcbnew,6.0.7*%
%TF.CreationDate,2022-08-20T01:50:23-07:00*%
%TF.ProjectId,thermometer-digital-min_max-pcb,74686572-6d6f-46d6-9574-65722d646967,rev?*%
%TF.SameCoordinates,Original*%
%TF.FileFunction,Legend,Top*%
%TF.FilePolarity,Positive*%
%FSLAX46Y46*%
G04 Gerber Fmt 4.6, Leading zero omitted, Abs format (unit mm)*
G04 Created by KiCad (PCBNEW 6.0.7) date 2022-08-20 01:50:23*
%MOMM*%
%LPD*%
G01*
G04 APERTURE LIST*
%ADD10C,0.150000*%
%ADD11C,0.120000*%
G04 APERTURE END LIST*
D10*
X110476190Y-109452380D02*
X110809523Y-110452380D01*
X111142857Y-109452380D01*
X112000000Y-110452380D02*
X111428571Y-110452380D01*
X111714285Y-110452380D02*
X111714285Y-109452380D01*
X111619047Y-109595238D01*
X111523809Y-109690476D01*
X111428571Y-109738095D01*
X112428571Y-110357142D02*
X112476190Y-110404761D01*
X112428571Y-110452380D01*
X112380952Y-110404761D01*
X112428571Y-110357142D01*
X112428571Y-110452380D01*
X113428571Y-110452380D02*
X112857142Y-110452380D01*
X113142857Y-110452380D02*
X113142857Y-109452380D01*
X113047619Y-109595238D01*
X112952380Y-109690476D01*
X112857142Y-109738095D01*
%TO.C,R4*%
X153333333Y-61952380D02*
X153000000Y-61476190D01*
X152761904Y-61952380D02*
X152761904Y-60952380D01*
X153142857Y-60952380D01*
X153238095Y-61000000D01*
X153285714Y-61047619D01*
X153333333Y-61142857D01*
X153333333Y-61285714D01*
X153285714Y-61380952D01*
X153238095Y-61428571D01*
X153142857Y-61476190D01*
X152761904Y-61476190D01*
X154190476Y-61285714D02*
X154190476Y-61952380D01*
X153952380Y-60904761D02*
X153714285Y-61619047D01*
X154333333Y-61619047D01*
%TO.C,R0*%
X141333333Y-61952380D02*
X141000000Y-61476190D01*
X140761904Y-61952380D02*
X140761904Y-60952380D01*
X141142857Y-60952380D01*
X141238095Y-61000000D01*
X141285714Y-61047619D01*
X141333333Y-61142857D01*
X141333333Y-61285714D01*
X141285714Y-61380952D01*
X141238095Y-61428571D01*
X141142857Y-61476190D01*
X140761904Y-61476190D01*
X141952380Y-60952380D02*
X142047619Y-60952380D01*
X142142857Y-61000000D01*
X142190476Y-61047619D01*
X142238095Y-61142857D01*
X142285714Y-61333333D01*
X142285714Y-61571428D01*
X142238095Y-61761904D01*
X142190476Y-61857142D01*
X142142857Y-61904761D01*
X142047619Y-61952380D01*
X141952380Y-61952380D01*
X141857142Y-61904761D01*
X141809523Y-61857142D01*
X141761904Y-61761904D01*
X141714285Y-61571428D01*
X141714285Y-61333333D01*
X141761904Y-61142857D01*
X141809523Y-61047619D01*
X141857142Y-61000000D01*
X141952380Y-60952380D01*
%TO.C,J1*%
X135057380Y-110473333D02*
X135771666Y-110473333D01*
X135914523Y-110520952D01*
X136009761Y-110616190D01*
X136057380Y-110759047D01*
X136057380Y-110854285D01*
X136057380Y-109473333D02*
X136057380Y-110044761D01*
X136057380Y-109759047D02*
X135057380Y-109759047D01*
X135200238Y-109854285D01*
X135295476Y-109949523D01*
X135343095Y-110044761D01*
%TO.C,D2*%
X140872380Y-78360595D02*
X139872380Y-78360595D01*
X139872380Y-78122500D01*
X139920000Y-77979642D01*
X140015238Y-77884404D01*
X140110476Y-77836785D01*
X140300952Y-77789166D01*
X140443809Y-77789166D01*
X140634285Y-77836785D01*
X140729523Y-77884404D01*
X140824761Y-77979642D01*
X140872380Y-78122500D01*
X140872380Y-78360595D01*
X139967619Y-77408214D02*
X139920000Y-77360595D01*
X139872380Y-77265357D01*
X139872380Y-77027261D01*
X139920000Y-76932023D01*
X139967619Y-76884404D01*
X140062857Y-76836785D01*
X140158095Y-76836785D01*
X140300952Y-76884404D01*
X140872380Y-77455833D01*
X140872380Y-76836785D01*
%TO.C,R9*%
X145333333Y-89452380D02*
X145000000Y-88976190D01*
X144761904Y-89452380D02*
X144761904Y-88452380D01*
X145142857Y-88452380D01*
X145238095Y-88500000D01*
X145285714Y-88547619D01*
X145333333Y-88642857D01*
X145333333Y-88785714D01*
X145285714Y-88880952D01*
X145238095Y-88928571D01*
X145142857Y-88976190D01*
X144761904Y-88976190D01*
X145809523Y-89452380D02*
X146000000Y-89452380D01*
X146095238Y-89404761D01*
X146142857Y-89357142D01*
X146238095Y-89214285D01*
X146285714Y-89023809D01*
X146285714Y-88642857D01*
X146238095Y-88547619D01*
X146190476Y-88500000D01*
X146095238Y-88452380D01*
X145904761Y-88452380D01*
X145809523Y-88500000D01*
X145761904Y-88547619D01*
X145714285Y-88642857D01*
X145714285Y-88880952D01*
X145761904Y-88976190D01*
X145809523Y-89023809D01*
X145904761Y-89071428D01*
X146095238Y-89071428D01*
X146190476Y-89023809D01*
X146238095Y-88976190D01*
X146285714Y-88880952D01*
%TO.C,D0*%
X166872380Y-78360595D02*
X165872380Y-78360595D01*
X165872380Y-78122500D01*
X165920000Y-77979642D01*
X166015238Y-77884404D01*
X166110476Y-77836785D01*
X166300952Y-77789166D01*
X166443809Y-77789166D01*
X166634285Y-77836785D01*
X166729523Y-77884404D01*
X166824761Y-77979642D01*
X166872380Y-78122500D01*
X166872380Y-78360595D01*
X165872380Y-77170119D02*
X165872380Y-77074880D01*
X165920000Y-76979642D01*
X165967619Y-76932023D01*
X166062857Y-76884404D01*
X166253333Y-76836785D01*
X166491428Y-76836785D01*
X166681904Y-76884404D01*
X166777142Y-76932023D01*
X166824761Y-76979642D01*
X166872380Y-77074880D01*
X166872380Y-77170119D01*
X166824761Y-77265357D01*
X166777142Y-77312976D01*
X166681904Y-77360595D01*
X166491428Y-77408214D01*
X166253333Y-77408214D01*
X166062857Y-77360595D01*
X165967619Y-77312976D01*
X165920000Y-77265357D01*
X165872380Y-77170119D01*
%TO.C,R1*%
X144333333Y-61952380D02*
X144000000Y-61476190D01*
X143761904Y-61952380D02*
X143761904Y-60952380D01*
X144142857Y-60952380D01*
X144238095Y-61000000D01*
X144285714Y-61047619D01*
X144333333Y-61142857D01*
X144333333Y-61285714D01*
X144285714Y-61380952D01*
X144238095Y-61428571D01*
X144142857Y-61476190D01*
X143761904Y-61476190D01*
X145285714Y-61952380D02*
X144714285Y-61952380D01*
X145000000Y-61952380D02*
X145000000Y-60952380D01*
X144904761Y-61095238D01*
X144809523Y-61190476D01*
X144714285Y-61238095D01*
%TO.C,U0*%
X151248095Y-50552380D02*
X151248095Y-51361904D01*
X151295714Y-51457142D01*
X151343333Y-51504761D01*
X151438571Y-51552380D01*
X151629047Y-51552380D01*
X151724285Y-51504761D01*
X151771904Y-51457142D01*
X151819523Y-51361904D01*
X151819523Y-50552380D01*
X152486190Y-50552380D02*
X152581428Y-50552380D01*
X152676666Y-50600000D01*
X152724285Y-50647619D01*
X152771904Y-50742857D01*
X152819523Y-50933333D01*
X152819523Y-51171428D01*
X152771904Y-51361904D01*
X152724285Y-51457142D01*
X152676666Y-51504761D01*
X152581428Y-51552380D01*
X152486190Y-51552380D01*
X152390952Y-51504761D01*
X152343333Y-51457142D01*
X152295714Y-51361904D01*
X152248095Y-51171428D01*
X152248095Y-50933333D01*
X152295714Y-50742857D01*
X152343333Y-50647619D01*
X152390952Y-50600000D01*
X152486190Y-50552380D01*
%TO.C,R8*%
X132333333Y-89452380D02*
X132000000Y-88976190D01*
X131761904Y-89452380D02*
X131761904Y-88452380D01*
X132142857Y-88452380D01*
X132238095Y-88500000D01*
X132285714Y-88547619D01*
X132333333Y-88642857D01*
X132333333Y-88785714D01*
X132285714Y-88880952D01*
X132238095Y-88928571D01*
X132142857Y-88976190D01*
X131761904Y-88976190D01*
X132904761Y-88880952D02*
X132809523Y-88833333D01*
X132761904Y-88785714D01*
X132714285Y-88690476D01*
X132714285Y-88642857D01*
X132761904Y-88547619D01*
X132809523Y-88500000D01*
X132904761Y-88452380D01*
X133095238Y-88452380D01*
X133190476Y-88500000D01*
X133238095Y-88547619D01*
X133285714Y-88642857D01*
X133285714Y-88690476D01*
X133238095Y-88785714D01*
X133190476Y-88833333D01*
X133095238Y-88880952D01*
X132904761Y-88880952D01*
X132809523Y-88928571D01*
X132761904Y-88976190D01*
X132714285Y-89071428D01*
X132714285Y-89261904D01*
X132761904Y-89357142D01*
X132809523Y-89404761D01*
X132904761Y-89452380D01*
X133095238Y-89452380D01*
X133190476Y-89404761D01*
X133238095Y-89357142D01*
X133285714Y-89261904D01*
X133285714Y-89071428D01*
X133238095Y-88976190D01*
X133190476Y-88928571D01*
X133095238Y-88880952D01*
%TO.C,Q2*%
X145404761Y-96617619D02*
X145309523Y-96570000D01*
X145214285Y-96474761D01*
X145071428Y-96331904D01*
X144976190Y-96284285D01*
X144880952Y-96284285D01*
X144928571Y-96522380D02*
X144833333Y-96474761D01*
X144738095Y-96379523D01*
X144690476Y-96189047D01*
X144690476Y-95855714D01*
X144738095Y-95665238D01*
X144833333Y-95570000D01*
X144928571Y-95522380D01*
X145119047Y-95522380D01*
X145214285Y-95570000D01*
X145309523Y-95665238D01*
X145357142Y-95855714D01*
X145357142Y-96189047D01*
X145309523Y-96379523D01*
X145214285Y-96474761D01*
X145119047Y-96522380D01*
X144928571Y-96522380D01*
X145738095Y-95617619D02*
X145785714Y-95570000D01*
X145880952Y-95522380D01*
X146119047Y-95522380D01*
X146214285Y-95570000D01*
X146261904Y-95617619D01*
X146309523Y-95712857D01*
X146309523Y-95808095D01*
X146261904Y-95950952D01*
X145690476Y-96522380D01*
X146309523Y-96522380D01*
%TO.C,R13*%
X132952380Y-51742857D02*
X132476190Y-52076190D01*
X132952380Y-52314285D02*
X131952380Y-52314285D01*
X131952380Y-51933333D01*
X132000000Y-51838095D01*
X132047619Y-51790476D01*
X132142857Y-51742857D01*
X132285714Y-51742857D01*
X132380952Y-51790476D01*
X132428571Y-51838095D01*
X132476190Y-51933333D01*
X132476190Y-52314285D01*
X132952380Y-50790476D02*
X132952380Y-51361904D01*
X132952380Y-51076190D02*
X131952380Y-51076190D01*
X132095238Y-51171428D01*
X132190476Y-51266666D01*
X132238095Y-51361904D01*
X131952380Y-50457142D02*
X131952380Y-49838095D01*
X132333333Y-50171428D01*
X132333333Y-50028571D01*
X132380952Y-49933333D01*
X132428571Y-49885714D01*
X132523809Y-49838095D01*
X132761904Y-49838095D01*
X132857142Y-49885714D01*
X132904761Y-49933333D01*
X132952380Y-50028571D01*
X132952380Y-50314285D01*
X132904761Y-50409523D01*
X132857142Y-50457142D01*
%TO.C,R10*%
X157857142Y-89452380D02*
X157523809Y-88976190D01*
X157285714Y-89452380D02*
X157285714Y-88452380D01*
X157666666Y-88452380D01*
X157761904Y-88500000D01*
X157809523Y-88547619D01*
X157857142Y-88642857D01*
X157857142Y-88785714D01*
X157809523Y-88880952D01*
X157761904Y-88928571D01*
X157666666Y-88976190D01*
X157285714Y-88976190D01*
X158809523Y-89452380D02*
X158238095Y-89452380D01*
X158523809Y-89452380D02*
X158523809Y-88452380D01*
X158428571Y-88595238D01*
X158333333Y-88690476D01*
X158238095Y-88738095D01*
X159428571Y-88452380D02*
X159523809Y-88452380D01*
X159619047Y-88500000D01*
X159666666Y-88547619D01*
X159714285Y-88642857D01*
X159761904Y-88833333D01*
X159761904Y-89071428D01*
X159714285Y-89261904D01*
X159666666Y-89357142D01*
X159619047Y-89404761D01*
X159523809Y-89452380D01*
X159428571Y-89452380D01*
X159333333Y-89404761D01*
X159285714Y-89357142D01*
X159238095Y-89261904D01*
X159190476Y-89071428D01*
X159190476Y-88833333D01*
X159238095Y-88642857D01*
X159285714Y-88547619D01*
X159333333Y-88500000D01*
X159428571Y-88452380D01*
%TO.C,R5*%
X156333333Y-61952380D02*
X156000000Y-61476190D01*
X155761904Y-61952380D02*
X155761904Y-60952380D01*
X156142857Y-60952380D01*
X156238095Y-61000000D01*
X156285714Y-61047619D01*
X156333333Y-61142857D01*
X156333333Y-61285714D01*
X156285714Y-61380952D01*
X156238095Y-61428571D01*
X156142857Y-61476190D01*
X155761904Y-61476190D01*
X157238095Y-60952380D02*
X156761904Y-60952380D01*
X156714285Y-61428571D01*
X156761904Y-61380952D01*
X156857142Y-61333333D01*
X157095238Y-61333333D01*
X157190476Y-61380952D01*
X157238095Y-61428571D01*
X157285714Y-61523809D01*
X157285714Y-61761904D01*
X157238095Y-61857142D01*
X157190476Y-61904761D01*
X157095238Y-61952380D01*
X156857142Y-61952380D01*
X156761904Y-61904761D01*
X156714285Y-61857142D01*
%TO.C,R3*%
X150333333Y-61952380D02*
X150000000Y-61476190D01*
X149761904Y-61952380D02*
X149761904Y-60952380D01*
X150142857Y-60952380D01*
X150238095Y-61000000D01*
X150285714Y-61047619D01*
X150333333Y-61142857D01*
X150333333Y-61285714D01*
X150285714Y-61380952D01*
X150238095Y-61428571D01*
X150142857Y-61476190D01*
X149761904Y-61476190D01*
X150666666Y-60952380D02*
X151285714Y-60952380D01*
X150952380Y-61333333D01*
X151095238Y-61333333D01*
X151190476Y-61380952D01*
X151238095Y-61428571D01*
X151285714Y-61523809D01*
X151285714Y-61761904D01*
X151238095Y-61857142D01*
X151190476Y-61904761D01*
X151095238Y-61952380D01*
X150809523Y-61952380D01*
X150714285Y-61904761D01*
X150666666Y-61857142D01*
%TO.C,B0*%
X189555238Y-69048571D02*
X189698095Y-69096190D01*
X189745714Y-69143809D01*
X189793333Y-69239047D01*
X189793333Y-69381904D01*
X189745714Y-69477142D01*
X189698095Y-69524761D01*
X189602857Y-69572380D01*
X189221904Y-69572380D01*
X189221904Y-68572380D01*
X189555238Y-68572380D01*
X189650476Y-68620000D01*
X189698095Y-68667619D01*
X189745714Y-68762857D01*
X189745714Y-68858095D01*
X189698095Y-68953333D01*
X189650476Y-69000952D01*
X189555238Y-69048571D01*
X189221904Y-69048571D01*
X190412380Y-68572380D02*
X190507619Y-68572380D01*
X190602857Y-68620000D01*
X190650476Y-68667619D01*
X190698095Y-68762857D01*
X190745714Y-68953333D01*
X190745714Y-69191428D01*
X190698095Y-69381904D01*
X190650476Y-69477142D01*
X190602857Y-69524761D01*
X190507619Y-69572380D01*
X190412380Y-69572380D01*
X190317142Y-69524761D01*
X190269523Y-69477142D01*
X190221904Y-69381904D01*
X190174285Y-69191428D01*
X190174285Y-68953333D01*
X190221904Y-68762857D01*
X190269523Y-68667619D01*
X190317142Y-68620000D01*
X190412380Y-68572380D01*
%TO.C,B3*%
X189595238Y-96258571D02*
X189738095Y-96306190D01*
X189785714Y-96353809D01*
X189833333Y-96449047D01*
X189833333Y-96591904D01*
X189785714Y-96687142D01*
X189738095Y-96734761D01*
X189642857Y-96782380D01*
X189261904Y-96782380D01*
X189261904Y-95782380D01*
X189595238Y-95782380D01*
X189690476Y-95830000D01*
X189738095Y-95877619D01*
X189785714Y-95972857D01*
X189785714Y-96068095D01*
X189738095Y-96163333D01*
X189690476Y-96210952D01*
X189595238Y-96258571D01*
X189261904Y-96258571D01*
X190166666Y-95782380D02*
X190785714Y-95782380D01*
X190452380Y-96163333D01*
X190595238Y-96163333D01*
X190690476Y-96210952D01*
X190738095Y-96258571D01*
X190785714Y-96353809D01*
X190785714Y-96591904D01*
X190738095Y-96687142D01*
X190690476Y-96734761D01*
X190595238Y-96782380D01*
X190309523Y-96782380D01*
X190214285Y-96734761D01*
X190166666Y-96687142D01*
%TO.C,R11*%
X170857142Y-89452380D02*
X170523809Y-88976190D01*
X170285714Y-89452380D02*
X170285714Y-88452380D01*
X170666666Y-88452380D01*
X170761904Y-88500000D01*
X170809523Y-88547619D01*
X170857142Y-88642857D01*
X170857142Y-88785714D01*
X170809523Y-88880952D01*
X170761904Y-88928571D01*
X170666666Y-88976190D01*
X170285714Y-88976190D01*
X171809523Y-89452380D02*
X171238095Y-89452380D01*
X171523809Y-89452380D02*
X171523809Y-88452380D01*
X171428571Y-88595238D01*
X171333333Y-88690476D01*
X171238095Y-88738095D01*
X172761904Y-89452380D02*
X172190476Y-89452380D01*
X172476190Y-89452380D02*
X172476190Y-88452380D01*
X172380952Y-88595238D01*
X172285714Y-88690476D01*
X172190476Y-88738095D01*
%TO.C,R6*%
X159333333Y-61952380D02*
X159000000Y-61476190D01*
X158761904Y-61952380D02*
X158761904Y-60952380D01*
X159142857Y-60952380D01*
X159238095Y-61000000D01*
X159285714Y-61047619D01*
X159333333Y-61142857D01*
X159333333Y-61285714D01*
X159285714Y-61380952D01*
X159238095Y-61428571D01*
X159142857Y-61476190D01*
X158761904Y-61476190D01*
X160190476Y-60952380D02*
X160000000Y-60952380D01*
X159904761Y-61000000D01*
X159857142Y-61047619D01*
X159761904Y-61190476D01*
X159714285Y-61380952D01*
X159714285Y-61761904D01*
X159761904Y-61857142D01*
X159809523Y-61904761D01*
X159904761Y-61952380D01*
X160095238Y-61952380D01*
X160190476Y-61904761D01*
X160238095Y-61857142D01*
X160285714Y-61761904D01*
X160285714Y-61523809D01*
X160238095Y-61428571D01*
X160190476Y-61380952D01*
X160095238Y-61333333D01*
X159904761Y-61333333D01*
X159809523Y-61380952D01*
X159761904Y-61428571D01*
X159714285Y-61523809D01*
%TO.C,B2*%
X113595238Y-96258571D02*
X113738095Y-96306190D01*
X113785714Y-96353809D01*
X113833333Y-96449047D01*
X113833333Y-96591904D01*
X113785714Y-96687142D01*
X113738095Y-96734761D01*
X113642857Y-96782380D01*
X113261904Y-96782380D01*
X113261904Y-95782380D01*
X113595238Y-95782380D01*
X113690476Y-95830000D01*
X113738095Y-95877619D01*
X113785714Y-95972857D01*
X113785714Y-96068095D01*
X113738095Y-96163333D01*
X113690476Y-96210952D01*
X113595238Y-96258571D01*
X113261904Y-96258571D01*
X114214285Y-95877619D02*
X114261904Y-95830000D01*
X114357142Y-95782380D01*
X114595238Y-95782380D01*
X114690476Y-95830000D01*
X114738095Y-95877619D01*
X114785714Y-95972857D01*
X114785714Y-96068095D01*
X114738095Y-96210952D01*
X114166666Y-96782380D01*
X114785714Y-96782380D01*
%TO.C,Q3*%
X132404761Y-96617619D02*
X132309523Y-96570000D01*
X132214285Y-96474761D01*
X132071428Y-96331904D01*
X131976190Y-96284285D01*
X131880952Y-96284285D01*
X131928571Y-96522380D02*
X131833333Y-96474761D01*
X131738095Y-96379523D01*
X131690476Y-96189047D01*
X131690476Y-95855714D01*
X131738095Y-95665238D01*
X131833333Y-95570000D01*
X131928571Y-95522380D01*
X132119047Y-95522380D01*
X132214285Y-95570000D01*
X132309523Y-95665238D01*
X132357142Y-95855714D01*
X132357142Y-96189047D01*
X132309523Y-96379523D01*
X132214285Y-96474761D01*
X132119047Y-96522380D01*
X131928571Y-96522380D01*
X132690476Y-95522380D02*
X133309523Y-95522380D01*
X132976190Y-95903333D01*
X133119047Y-95903333D01*
X133214285Y-95950952D01*
X133261904Y-95998571D01*
X133309523Y-96093809D01*
X133309523Y-96331904D01*
X133261904Y-96427142D01*
X133214285Y-96474761D01*
X133119047Y-96522380D01*
X132833333Y-96522380D01*
X132738095Y-96474761D01*
X132690476Y-96427142D01*
%TO.C,D3*%
X127872380Y-78360595D02*
X126872380Y-78360595D01*
X126872380Y-78122500D01*
X126920000Y-77979642D01*
X127015238Y-77884404D01*
X127110476Y-77836785D01*
X127300952Y-77789166D01*
X127443809Y-77789166D01*
X127634285Y-77836785D01*
X127729523Y-77884404D01*
X127824761Y-77979642D01*
X127872380Y-78122500D01*
X127872380Y-78360595D01*
X126872380Y-77455833D02*
X126872380Y-76836785D01*
X127253333Y-77170119D01*
X127253333Y-77027261D01*
X127300952Y-76932023D01*
X127348571Y-76884404D01*
X127443809Y-76836785D01*
X127681904Y-76836785D01*
X127777142Y-76884404D01*
X127824761Y-76932023D01*
X127872380Y-77027261D01*
X127872380Y-77312976D01*
X127824761Y-77408214D01*
X127777142Y-77455833D01*
%TO.C,B1*%
X113555238Y-69048571D02*
X113698095Y-69096190D01*
X113745714Y-69143809D01*
X113793333Y-69239047D01*
X113793333Y-69381904D01*
X113745714Y-69477142D01*
X113698095Y-69524761D01*
X113602857Y-69572380D01*
X113221904Y-69572380D01*
X113221904Y-68572380D01*
X113555238Y-68572380D01*
X113650476Y-68620000D01*
X113698095Y-68667619D01*
X113745714Y-68762857D01*
X113745714Y-68858095D01*
X113698095Y-68953333D01*
X113650476Y-69000952D01*
X113555238Y-69048571D01*
X113221904Y-69048571D01*
X114745714Y-69572380D02*
X114174285Y-69572380D01*
X114460000Y-69572380D02*
X114460000Y-68572380D01*
X114364761Y-68715238D01*
X114269523Y-68810476D01*
X114174285Y-68858095D01*
%TO.C,R7*%
X162333333Y-61952380D02*
X162000000Y-61476190D01*
X161761904Y-61952380D02*
X161761904Y-60952380D01*
X162142857Y-60952380D01*
X162238095Y-61000000D01*
X162285714Y-61047619D01*
X162333333Y-61142857D01*
X162333333Y-61285714D01*
X162285714Y-61380952D01*
X162238095Y-61428571D01*
X162142857Y-61476190D01*
X161761904Y-61476190D01*
X162666666Y-60952380D02*
X163333333Y-60952380D01*
X162904761Y-61952380D01*
%TO.C,Q1*%
X158404761Y-96617619D02*
X158309523Y-96570000D01*
X158214285Y-96474761D01*
X158071428Y-96331904D01*
X157976190Y-96284285D01*
X157880952Y-96284285D01*
X157928571Y-96522380D02*
X157833333Y-96474761D01*
X157738095Y-96379523D01*
X157690476Y-96189047D01*
X157690476Y-95855714D01*
X157738095Y-95665238D01*
X157833333Y-95570000D01*
X157928571Y-95522380D01*
X158119047Y-95522380D01*
X158214285Y-95570000D01*
X158309523Y-95665238D01*
X158357142Y-95855714D01*
X158357142Y-96189047D01*
X158309523Y-96379523D01*
X158214285Y-96474761D01*
X158119047Y-96522380D01*
X157928571Y-96522380D01*
X159309523Y-96522380D02*
X158738095Y-96522380D01*
X159023809Y-96522380D02*
X159023809Y-95522380D01*
X158928571Y-95665238D01*
X158833333Y-95760476D01*
X158738095Y-95808095D01*
%TO.C,R12*%
X171357142Y-107452380D02*
X171023809Y-106976190D01*
X170785714Y-107452380D02*
X170785714Y-106452380D01*
X171166666Y-106452380D01*
X171261904Y-106500000D01*
X171309523Y-106547619D01*
X171357142Y-106642857D01*
X171357142Y-106785714D01*
X171309523Y-106880952D01*
X171261904Y-106928571D01*
X171166666Y-106976190D01*
X170785714Y-106976190D01*
X172309523Y-107452380D02*
X171738095Y-107452380D01*
X172023809Y-107452380D02*
X172023809Y-106452380D01*
X171928571Y-106595238D01*
X171833333Y-106690476D01*
X171738095Y-106738095D01*
X172690476Y-106547619D02*
X172738095Y-106500000D01*
X172833333Y-106452380D01*
X173071428Y-106452380D01*
X173166666Y-106500000D01*
X173214285Y-106547619D01*
X173261904Y-106642857D01*
X173261904Y-106738095D01*
X173214285Y-106880952D01*
X172642857Y-107452380D01*
X173261904Y-107452380D01*
%TO.C,J0*%
X177582380Y-110503333D02*
X178296666Y-110503333D01*
X178439523Y-110550952D01*
X178534761Y-110646190D01*
X178582380Y-110789047D01*
X178582380Y-110884285D01*
X177582380Y-109836666D02*
X177582380Y-109741428D01*
X177630000Y-109646190D01*
X177677619Y-109598571D01*
X177772857Y-109550952D01*
X177963333Y-109503333D01*
X178201428Y-109503333D01*
X178391904Y-109550952D01*
X178487142Y-109598571D01*
X178534761Y-109646190D01*
X178582380Y-109741428D01*
X178582380Y-109836666D01*
X178534761Y-109931904D01*
X178487142Y-109979523D01*
X178391904Y-110027142D01*
X178201428Y-110074761D01*
X177963333Y-110074761D01*
X177772857Y-110027142D01*
X177677619Y-109979523D01*
X177630000Y-109931904D01*
X177582380Y-109836666D01*
%TO.C,D1*%
X153872380Y-78360595D02*
X152872380Y-78360595D01*
X152872380Y-78122500D01*
X152920000Y-77979642D01*
X153015238Y-77884404D01*
X153110476Y-77836785D01*
X153300952Y-77789166D01*
X153443809Y-77789166D01*
X153634285Y-77836785D01*
X153729523Y-77884404D01*
X153824761Y-77979642D01*
X153872380Y-78122500D01*
X153872380Y-78360595D01*
X153872380Y-76836785D02*
X153872380Y-77408214D01*
X153872380Y-77122500D02*
X152872380Y-77122500D01*
X153015238Y-77217738D01*
X153110476Y-77312976D01*
X153158095Y-77408214D01*
%TO.C,Q0*%
X171404761Y-96617619D02*
X171309523Y-96570000D01*
X171214285Y-96474761D01*
X171071428Y-96331904D01*
X170976190Y-96284285D01*
X170880952Y-96284285D01*
X170928571Y-96522380D02*
X170833333Y-96474761D01*
X170738095Y-96379523D01*
X170690476Y-96189047D01*
X170690476Y-95855714D01*
X170738095Y-95665238D01*
X170833333Y-95570000D01*
X170928571Y-95522380D01*
X171119047Y-95522380D01*
X171214285Y-95570000D01*
X171309523Y-95665238D01*
X171357142Y-95855714D01*
X171357142Y-96189047D01*
X171309523Y-96379523D01*
X171214285Y-96474761D01*
X171119047Y-96522380D01*
X170928571Y-96522380D01*
X171976190Y-95522380D02*
X172071428Y-95522380D01*
X172166666Y-95570000D01*
X172214285Y-95617619D01*
X172261904Y-95712857D01*
X172309523Y-95903333D01*
X172309523Y-96141428D01*
X172261904Y-96331904D01*
X172214285Y-96427142D01*
X172166666Y-96474761D01*
X172071428Y-96522380D01*
X171976190Y-96522380D01*
X171880952Y-96474761D01*
X171833333Y-96427142D01*
X171785714Y-96331904D01*
X171738095Y-96141428D01*
X171738095Y-95903333D01*
X171785714Y-95712857D01*
X171833333Y-95617619D01*
X171880952Y-95570000D01*
X171976190Y-95522380D01*
%TO.C,R2*%
X147433333Y-61952380D02*
X147100000Y-61476190D01*
X146861904Y-61952380D02*
X146861904Y-60952380D01*
X147242857Y-60952380D01*
X147338095Y-61000000D01*
X147385714Y-61047619D01*
X147433333Y-61142857D01*
X147433333Y-61285714D01*
X147385714Y-61380952D01*
X147338095Y-61428571D01*
X147242857Y-61476190D01*
X146861904Y-61476190D01*
X147814285Y-61047619D02*
X147861904Y-61000000D01*
X147957142Y-60952380D01*
X148195238Y-60952380D01*
X148290476Y-61000000D01*
X148338095Y-61047619D01*
X148385714Y-61142857D01*
X148385714Y-61238095D01*
X148338095Y-61380952D01*
X147766666Y-61952380D01*
X148385714Y-61952380D01*
D11*
%TO.C,R4*%
X154870000Y-65160000D02*
X154540000Y-65160000D01*
X154540000Y-58620000D02*
X154870000Y-58620000D01*
X152130000Y-58620000D02*
X152130000Y-65160000D01*
X154870000Y-58620000D02*
X154870000Y-65160000D01*
X152130000Y-65160000D02*
X152460000Y-65160000D01*
X152460000Y-58620000D02*
X152130000Y-58620000D01*
%TO.C,R0*%
X140130000Y-58620000D02*
X140130000Y-65160000D01*
X140460000Y-58620000D02*
X140130000Y-58620000D01*
X142540000Y-58620000D02*
X142870000Y-58620000D01*
X142870000Y-58620000D02*
X142870000Y-65160000D01*
X140130000Y-65160000D02*
X140460000Y-65160000D01*
X142870000Y-65160000D02*
X142540000Y-65160000D01*
%TO.C,J1*%
X132005000Y-111470000D02*
X129405000Y-111470000D01*
X132005000Y-108810000D02*
X129405000Y-108810000D01*
X129405000Y-108810000D02*
X129405000Y-111470000D01*
X133275000Y-108810000D02*
X134605000Y-108810000D01*
X132005000Y-108810000D02*
X132005000Y-111470000D01*
X134605000Y-108810000D02*
X134605000Y-110140000D01*
%TO.C,D2*%
X139620000Y-87460000D02*
X141230000Y-87460000D01*
X143579400Y-77474000D02*
X143579400Y-82376200D01*
X139140000Y-67890000D02*
X151860000Y-67890000D01*
X151860000Y-67890000D02*
X151860000Y-87110000D01*
X147618000Y-77474000D02*
X147618000Y-82376200D01*
X139140000Y-87110000D02*
X151860000Y-87110000D01*
X139140000Y-67890000D02*
X139140000Y-87110000D01*
X143579400Y-71936800D02*
X143579400Y-77296200D01*
X143757200Y-71911400D02*
X147440200Y-71911400D01*
X147618000Y-71936800D02*
X147618000Y-77296200D01*
X143757200Y-82376200D02*
X147440200Y-82376200D01*
X143757200Y-77372400D02*
X147440200Y-77372400D01*
X148962467Y-82562467D02*
G75*
G03*
X148962467Y-82562467I-472467J0D01*
G01*
%TO.C,R9*%
X142230000Y-87380000D02*
X142230000Y-87710000D01*
X148770000Y-90120000D02*
X142230000Y-90120000D01*
X142230000Y-90120000D02*
X142230000Y-89790000D01*
X148770000Y-87710000D02*
X148770000Y-87380000D01*
X148770000Y-87380000D02*
X142230000Y-87380000D01*
X148770000Y-89790000D02*
X148770000Y-90120000D01*
%TO.C,D0*%
X169757200Y-77372400D02*
X173440200Y-77372400D01*
X177860000Y-67890000D02*
X177860000Y-87110000D01*
X169757200Y-71911400D02*
X173440200Y-71911400D01*
X165140000Y-87110000D02*
X177860000Y-87110000D01*
X169579400Y-71936800D02*
X169579400Y-77296200D01*
X173618000Y-71936800D02*
X173618000Y-77296200D01*
X165140000Y-67890000D02*
X177860000Y-67890000D01*
X173618000Y-77474000D02*
X173618000Y-82376200D01*
X169757200Y-82376200D02*
X173440200Y-82376200D01*
X165620000Y-87460000D02*
X167230000Y-87460000D01*
X169579400Y-77474000D02*
X169579400Y-82376200D01*
X165140000Y-67890000D02*
X165140000Y-87110000D01*
X174962467Y-82562467D02*
G75*
G03*
X174962467Y-82562467I-472467J0D01*
G01*
%TO.C,R1*%
X145870000Y-58620000D02*
X145870000Y-65160000D01*
X145870000Y-65160000D02*
X145540000Y-65160000D01*
X145540000Y-58620000D02*
X145870000Y-58620000D01*
X143130000Y-65160000D02*
X143460000Y-65160000D01*
X143130000Y-58620000D02*
X143130000Y-65160000D01*
X143460000Y-58620000D02*
X143130000Y-58620000D01*
%TO.C,U0*%
X134170000Y-53740000D02*
X169850000Y-53740000D01*
X134170000Y-52090000D02*
X134170000Y-53740000D01*
X169850000Y-53740000D02*
X169850000Y-48440000D01*
X134170000Y-48440000D02*
X134170000Y-50090000D01*
X169850000Y-48440000D02*
X134170000Y-48440000D01*
X134170000Y-52090000D02*
G75*
G03*
X134170000Y-50090000I0J1000000D01*
G01*
%TO.C,R8*%
X135770000Y-90120000D02*
X129230000Y-90120000D01*
X135770000Y-87380000D02*
X129230000Y-87380000D01*
X129230000Y-87380000D02*
X129230000Y-87710000D01*
X135770000Y-89790000D02*
X135770000Y-90120000D01*
X129230000Y-90120000D02*
X129230000Y-89790000D01*
X135770000Y-87710000D02*
X135770000Y-87380000D01*
%TO.C,Q2*%
X147300000Y-90410000D02*
X143700000Y-90410000D01*
X145500000Y-94860001D02*
G75*
G03*
X147338478Y-90421522I0J2600001D01*
G01*
X143661522Y-90421522D02*
G75*
G03*
X145500000Y-94860000I1838478J-1838478D01*
G01*
%TO.C,R13*%
X133820000Y-54370000D02*
X133820000Y-47830000D01*
X131080000Y-54370000D02*
X131080000Y-47830000D01*
X131410000Y-54370000D02*
X131080000Y-54370000D01*
X131080000Y-47830000D02*
X131410000Y-47830000D01*
X133820000Y-47830000D02*
X133490000Y-47830000D01*
X133490000Y-54370000D02*
X133820000Y-54370000D01*
%TO.C,R10*%
X161770000Y-87710000D02*
X161770000Y-87380000D01*
X161770000Y-89790000D02*
X161770000Y-90120000D01*
X161770000Y-90120000D02*
X155230000Y-90120000D01*
X161770000Y-87380000D02*
X155230000Y-87380000D01*
X155230000Y-87380000D02*
X155230000Y-87710000D01*
X155230000Y-90120000D02*
X155230000Y-89790000D01*
%TO.C,R5*%
X155130000Y-58620000D02*
X155130000Y-65160000D01*
X155460000Y-58620000D02*
X155130000Y-58620000D01*
X157540000Y-58620000D02*
X157870000Y-58620000D01*
X157870000Y-58620000D02*
X157870000Y-65160000D01*
X157870000Y-65160000D02*
X157540000Y-65160000D01*
X155130000Y-65160000D02*
X155460000Y-65160000D01*
%TO.C,R3*%
X149460000Y-58620000D02*
X149130000Y-58620000D01*
X151870000Y-58620000D02*
X151870000Y-65160000D01*
X151870000Y-65160000D02*
X151540000Y-65160000D01*
X149130000Y-58620000D02*
X149130000Y-65160000D01*
X149130000Y-65160000D02*
X149460000Y-65160000D01*
X151540000Y-58620000D02*
X151870000Y-58620000D01*
%TO.C,B0*%
X192210000Y-60500000D02*
X187710000Y-60500000D01*
X193460000Y-64500000D02*
X193460000Y-63000000D01*
X187710000Y-67000000D02*
X192210000Y-67000000D01*
X186460000Y-63000000D02*
X186460000Y-64500000D01*
%TO.C,B3*%
X186500000Y-90500000D02*
X186500000Y-92000000D01*
X193500000Y-92000000D02*
X193500000Y-90500000D01*
X192250000Y-88000000D02*
X187750000Y-88000000D01*
X187750000Y-94500000D02*
X192250000Y-94500000D01*
%TO.C,R11*%
X174770000Y-89790000D02*
X174770000Y-90120000D01*
X174770000Y-87710000D02*
X174770000Y-87380000D01*
X174770000Y-87380000D02*
X168230000Y-87380000D01*
X168230000Y-90120000D02*
X168230000Y-89790000D01*
X174770000Y-90120000D02*
X168230000Y-90120000D01*
X168230000Y-87380000D02*
X168230000Y-87710000D01*
%TO.C,R6*%
X160540000Y-58620000D02*
X160870000Y-58620000D01*
X160870000Y-58620000D02*
X160870000Y-65160000D01*
X158130000Y-58620000D02*
X158130000Y-65160000D01*
X160870000Y-65160000D02*
X160540000Y-65160000D01*
X158130000Y-65160000D02*
X158460000Y-65160000D01*
X158460000Y-58620000D02*
X158130000Y-58620000D01*
%TO.C,B2*%
X117500000Y-92000000D02*
X117500000Y-90500000D01*
X116250000Y-88000000D02*
X111750000Y-88000000D01*
X110500000Y-90500000D02*
X110500000Y-92000000D01*
X111750000Y-94500000D02*
X116250000Y-94500000D01*
%TO.C,Q3*%
X134300000Y-90410000D02*
X130700000Y-90410000D01*
X130661522Y-90421522D02*
G75*
G03*
X132500000Y-94860000I1838478J-1838478D01*
G01*
X132500000Y-94860001D02*
G75*
G03*
X134338478Y-90421522I0J2600001D01*
G01*
%TO.C,D3*%
X130757200Y-77372400D02*
X134440200Y-77372400D01*
X130579400Y-77474000D02*
X130579400Y-82376200D01*
X130757200Y-71911400D02*
X134440200Y-71911400D01*
X130579400Y-71936800D02*
X130579400Y-77296200D01*
X126140000Y-67890000D02*
X126140000Y-87110000D01*
X138860000Y-67890000D02*
X138860000Y-87110000D01*
X126140000Y-67890000D02*
X138860000Y-67890000D01*
X130757200Y-82376200D02*
X134440200Y-82376200D01*
X126140000Y-87110000D02*
X138860000Y-87110000D01*
X134618000Y-77474000D02*
X134618000Y-82376200D01*
X134618000Y-71936800D02*
X134618000Y-77296200D01*
X126620000Y-87460000D02*
X128230000Y-87460000D01*
X135962467Y-82562467D02*
G75*
G03*
X135962467Y-82562467I-472467J0D01*
G01*
%TO.C,B1*%
X116210000Y-60500000D02*
X111710000Y-60500000D01*
X117460000Y-64500000D02*
X117460000Y-63000000D01*
X110460000Y-63000000D02*
X110460000Y-64500000D01*
X111710000Y-67000000D02*
X116210000Y-67000000D01*
%TO.C,R7*%
X161460000Y-58620000D02*
X161130000Y-58620000D01*
X163540000Y-58620000D02*
X163870000Y-58620000D01*
X163870000Y-65160000D02*
X163540000Y-65160000D01*
X161130000Y-58620000D02*
X161130000Y-65160000D01*
X161130000Y-65160000D02*
X161460000Y-65160000D01*
X163870000Y-58620000D02*
X163870000Y-65160000D01*
%TO.C,Q1*%
X160300000Y-90410000D02*
X156700000Y-90410000D01*
X158500000Y-94860001D02*
G75*
G03*
X160338478Y-90421522I0J2600001D01*
G01*
X156661522Y-90421522D02*
G75*
G03*
X158500000Y-94860000I1838478J-1838478D01*
G01*
%TO.C,R12*%
X175270000Y-108240000D02*
X175270000Y-107910000D01*
X175270000Y-105500000D02*
X175270000Y-105830000D01*
X168730000Y-105500000D02*
X175270000Y-105500000D01*
X168730000Y-108240000D02*
X175270000Y-108240000D01*
X168730000Y-105830000D02*
X168730000Y-105500000D01*
X168730000Y-107910000D02*
X168730000Y-108240000D01*
%TO.C,J0*%
X166850000Y-108840000D02*
X166850000Y-111500000D01*
X174530000Y-108840000D02*
X166850000Y-108840000D01*
X177130000Y-108840000D02*
X177130000Y-110170000D01*
X175800000Y-108840000D02*
X177130000Y-108840000D01*
X174530000Y-108840000D02*
X174530000Y-111500000D01*
X174530000Y-111500000D02*
X166850000Y-111500000D01*
%TO.C,D1*%
X160618000Y-71936800D02*
X160618000Y-77296200D01*
X152140000Y-67890000D02*
X152140000Y-87110000D01*
X152620000Y-87460000D02*
X154230000Y-87460000D01*
X156757200Y-71911400D02*
X160440200Y-71911400D01*
X156579400Y-71936800D02*
X156579400Y-77296200D01*
X156757200Y-77372400D02*
X160440200Y-77372400D01*
X152140000Y-67890000D02*
X164860000Y-67890000D01*
X164860000Y-67890000D02*
X164860000Y-87110000D01*
X160618000Y-77474000D02*
X160618000Y-82376200D01*
X152140000Y-87110000D02*
X164860000Y-87110000D01*
X156579400Y-77474000D02*
X156579400Y-82376200D01*
X156757200Y-82376200D02*
X160440200Y-82376200D01*
X161962467Y-82562467D02*
G75*
G03*
X161962467Y-82562467I-472467J0D01*
G01*
%TO.C,Q0*%
X173300000Y-90410000D02*
X169700000Y-90410000D01*
X171500000Y-94860001D02*
G75*
G03*
X173338478Y-90421522I0J2600001D01*
G01*
X169661522Y-90421522D02*
G75*
G03*
X171500000Y-94860000I1838478J-1838478D01*
G01*
%TO.C,R2*%
X146130000Y-65160000D02*
X146460000Y-65160000D01*
X148870000Y-65160000D02*
X148540000Y-65160000D01*
X146130000Y-58620000D02*
X146130000Y-65160000D01*
X148870000Y-58620000D02*
X148870000Y-65160000D01*
X146460000Y-58620000D02*
X146130000Y-58620000D01*
X148540000Y-58620000D02*
X148870000Y-58620000D01*
%TD*%
M02*
