%TF.GenerationSoftware,KiCad,Pcbnew,6.0.7*%
%TF.CreationDate,2022-08-16T20:24:01-07:00*%
%TF.ProjectId,thermometer-digital-min_max-pcb,74686572-6d6f-46d6-9574-65722d646967,rev?*%
%TF.SameCoordinates,Original*%
%TF.FileFunction,Copper,L3,Inr*%
%TF.FilePolarity,Positive*%
%FSLAX46Y46*%
G04 Gerber Fmt 4.6, Leading zero omitted, Abs format (unit mm)*
G04 Created by KiCad (PCBNEW 6.0.7) date 2022-08-16 20:24:01*
%MOMM*%
%LPD*%
G01*
G04 APERTURE LIST*
%TA.AperFunction,ComponentPad*%
%ADD10C,1.600000*%
%TD*%
%TA.AperFunction,ComponentPad*%
%ADD11O,1.600000X1.600000*%
%TD*%
%TA.AperFunction,ComponentPad*%
%ADD12R,1.700000X1.700000*%
%TD*%
%TA.AperFunction,ComponentPad*%
%ADD13O,1.700000X1.700000*%
%TD*%
%TA.AperFunction,ComponentPad*%
%ADD14R,1.600000X1.600000*%
%TD*%
%TA.AperFunction,ComponentPad*%
%ADD15C,2.600000*%
%TD*%
%TA.AperFunction,ComponentPad*%
%ADD16R,1.050000X1.500000*%
%TD*%
%TA.AperFunction,ComponentPad*%
%ADD17O,1.050000X1.500000*%
%TD*%
%TA.AperFunction,ComponentPad*%
%ADD18C,2.000000*%
%TD*%
%TA.AperFunction,Conductor*%
%ADD19C,0.250000*%
%TD*%
G04 APERTURE END LIST*
D10*
%TO.N,Net-(R4-Pad1)*%
%TO.C,R4*%
X152400000Y-59690000D03*
D11*
%TO.N,/SS_E*%
X152400000Y-67310000D03*
%TD*%
D10*
%TO.N,Net-(R0-Pad1)*%
%TO.C,R0*%
X137160000Y-59690000D03*
D11*
%TO.N,/SS_A*%
X137160000Y-67310000D03*
%TD*%
D12*
%TO.N,VCC*%
%TO.C,J1*%
X137160000Y-109220000D03*
D13*
%TO.N,GND*%
X134620000Y-109220000D03*
%TD*%
D14*
%TO.N,/SS_E*%
%TO.C,D2*%
X139700000Y-88777500D03*
D10*
%TO.N,/SS_D*%
X142240000Y-88777500D03*
%TO.N,Net-(D2-Pad3)*%
X144780000Y-88777500D03*
%TO.N,/SS_C*%
X147320000Y-88777500D03*
%TO.N,/SS_DP*%
X149860000Y-88777500D03*
%TO.N,/SS_B*%
X149860000Y-73537500D03*
%TO.N,/SS_A*%
X147320000Y-73537500D03*
%TO.N,Net-(D2-Pad3)*%
X144780000Y-73537500D03*
%TO.N,/SS_F*%
X142240000Y-73537500D03*
%TO.N,/SS_G*%
X139700000Y-73537500D03*
%TD*%
%TO.N,Net-(R9-Pad1)*%
%TO.C,R9*%
X148590000Y-92710000D03*
D11*
%TO.N,Net-(Q2-Pad2)*%
X140970000Y-92710000D03*
%TD*%
D14*
%TO.N,/SS_E*%
%TO.C,D0*%
X165100000Y-88777500D03*
D10*
%TO.N,/SS_D*%
X167640000Y-88777500D03*
%TO.N,Net-(D0-Pad3)*%
X170180000Y-88777500D03*
%TO.N,/SS_C*%
X172720000Y-88777500D03*
%TO.N,/SS_DP*%
X175260000Y-88777500D03*
%TO.N,/SS_B*%
X175260000Y-73537500D03*
%TO.N,/SS_A*%
X172720000Y-73537500D03*
%TO.N,Net-(D0-Pad3)*%
X170180000Y-73537500D03*
%TO.N,/SS_F*%
X167640000Y-73537500D03*
%TO.N,/SS_G*%
X165100000Y-73537500D03*
%TD*%
%TO.N,Net-(R1-Pad1)*%
%TO.C,R1*%
X140970000Y-59690000D03*
D11*
%TO.N,/SS_B*%
X140970000Y-67310000D03*
%TD*%
D14*
%TO.N,Net-(R13-Pad1)*%
%TO.C,U0*%
X134620000Y-54610000D03*
D11*
%TO.N,Net-(R0-Pad1)*%
X137160000Y-54610000D03*
%TO.N,Net-(R1-Pad1)*%
X139700000Y-54610000D03*
%TO.N,Net-(R2-Pad1)*%
X142240000Y-54610000D03*
%TO.N,Net-(R3-Pad1)*%
X144780000Y-54610000D03*
%TO.N,Net-(R4-Pad1)*%
X147320000Y-54610000D03*
%TO.N,VCC*%
X149860000Y-54610000D03*
%TO.N,GND*%
X152400000Y-54610000D03*
%TO.N,unconnected-(U0-Pad9)*%
X154940000Y-54610000D03*
%TO.N,unconnected-(U0-Pad10)*%
X157480000Y-54610000D03*
%TO.N,Net-(R5-Pad1)*%
X160020000Y-54610000D03*
%TO.N,Net-(R6-Pad1)*%
X162560000Y-54610000D03*
%TO.N,Net-(R7-Pad1)*%
X165100000Y-54610000D03*
%TO.N,Net-(R12-Pad2)*%
X167640000Y-54610000D03*
%TO.N,Net-(B3-Pad1)*%
X167640000Y-46990000D03*
%TO.N,Net-(B2-Pad1)*%
X165100000Y-46990000D03*
%TO.N,Net-(B1-Pad1)*%
X162560000Y-46990000D03*
%TO.N,Net-(B0-Pad1)*%
X160020000Y-46990000D03*
%TO.N,unconnected-(U0-Pad19)*%
X157480000Y-46990000D03*
%TO.N,unconnected-(U0-Pad20)*%
X154940000Y-46990000D03*
%TO.N,unconnected-(U0-Pad21)*%
X152400000Y-46990000D03*
%TO.N,GND*%
X149860000Y-46990000D03*
%TO.N,Net-(R11-Pad1)*%
X147320000Y-46990000D03*
%TO.N,Net-(R10-Pad1)*%
X144780000Y-46990000D03*
%TO.N,Net-(R9-Pad1)*%
X142240000Y-46990000D03*
%TO.N,Net-(R8-Pad1)*%
X139700000Y-46990000D03*
%TO.N,unconnected-(U0-Pad27)*%
X137160000Y-46990000D03*
%TO.N,unconnected-(U0-Pad28)*%
X134620000Y-46990000D03*
%TD*%
D10*
%TO.N,Net-(R8-Pad1)*%
%TO.C,R8*%
X135890000Y-92710000D03*
D11*
%TO.N,Net-(Q3-Pad2)*%
X128270000Y-92710000D03*
%TD*%
D15*
%TO.N,N/C*%
%TO.C,REF\u002A\u002A*%
X197000000Y-45000000D03*
%TD*%
D16*
%TO.N,GND*%
%TO.C,Q2*%
X146050000Y-96520000D03*
D17*
%TO.N,Net-(Q2-Pad2)*%
X144780000Y-96520000D03*
%TO.N,Net-(D2-Pad3)*%
X143510000Y-96520000D03*
%TD*%
D10*
%TO.N,Net-(R10-Pad1)*%
%TO.C,R10*%
X161290000Y-92710000D03*
D11*
%TO.N,Net-(Q1-Pad2)*%
X153670000Y-92710000D03*
%TD*%
D15*
%TO.N,N/C*%
%TO.C,REF\u002A\u002A*%
X106800000Y-45000000D03*
%TD*%
D10*
%TO.N,Net-(R5-Pad1)*%
%TO.C,R5*%
X156210000Y-59690000D03*
D11*
%TO.N,/SS_F*%
X156210000Y-67310000D03*
%TD*%
D10*
%TO.N,Net-(R3-Pad1)*%
%TO.C,R3*%
X148590000Y-59690000D03*
D11*
%TO.N,/SS_D*%
X148590000Y-67310000D03*
%TD*%
D18*
%TO.N,Net-(B0-Pad1)*%
%TO.C,B0*%
X191210000Y-66040000D03*
X184710000Y-66040000D03*
%TO.N,GND*%
X191210000Y-70540000D03*
X184710000Y-70540000D03*
%TD*%
%TO.N,Net-(B3-Pad1)*%
%TO.C,B3*%
X184710000Y-91730000D03*
X191210000Y-91730000D03*
%TO.N,GND*%
X191210000Y-96230000D03*
X184710000Y-96230000D03*
%TD*%
D10*
%TO.N,Net-(R11-Pad1)*%
%TO.C,R11*%
X173990000Y-92710000D03*
D11*
%TO.N,Net-(Q0-Pad2)*%
X166370000Y-92710000D03*
%TD*%
D10*
%TO.N,Net-(R13-Pad1)*%
%TO.C,R13*%
X130927000Y-54620000D03*
D11*
%TO.N,VCC*%
X130927000Y-47000000D03*
%TD*%
D10*
%TO.N,Net-(R6-Pad1)*%
%TO.C,R6*%
X160020000Y-59690000D03*
D11*
%TO.N,/SS_G*%
X160020000Y-67310000D03*
%TD*%
D18*
%TO.N,Net-(B2-Pad1)*%
%TO.C,B2*%
X117550000Y-91730000D03*
X111050000Y-91730000D03*
%TO.N,GND*%
X117550000Y-96230000D03*
X111050000Y-96230000D03*
%TD*%
D15*
%TO.N,N/C*%
%TO.C,REF\u002A\u002A*%
X107000000Y-110000000D03*
%TD*%
D16*
%TO.N,GND*%
%TO.C,Q3*%
X133350000Y-96520000D03*
D17*
%TO.N,Net-(Q3-Pad2)*%
X132080000Y-96520000D03*
%TO.N,Net-(D3-Pad3)*%
X130810000Y-96520000D03*
%TD*%
D14*
%TO.N,/SS_E*%
%TO.C,D3*%
X127000000Y-88777500D03*
D10*
%TO.N,/SS_D*%
X129540000Y-88777500D03*
%TO.N,Net-(D3-Pad3)*%
X132080000Y-88777500D03*
%TO.N,/SS_C*%
X134620000Y-88777500D03*
%TO.N,/SS_DP*%
X137160000Y-88777500D03*
%TO.N,/SS_B*%
X137160000Y-73537500D03*
%TO.N,/SS_A*%
X134620000Y-73537500D03*
%TO.N,Net-(D3-Pad3)*%
X132080000Y-73537500D03*
%TO.N,/SS_F*%
X129540000Y-73537500D03*
%TO.N,/SS_G*%
X127000000Y-73537500D03*
%TD*%
D18*
%TO.N,Net-(B1-Pad1)*%
%TO.C,B1*%
X111050000Y-66040000D03*
X117550000Y-66040000D03*
%TO.N,GND*%
X117550000Y-70540000D03*
X111050000Y-70540000D03*
%TD*%
D15*
%TO.N,N/C*%
%TO.C,REF\u002A\u002A*%
X197000000Y-110000000D03*
%TD*%
D10*
%TO.N,Net-(R7-Pad1)*%
%TO.C,R7*%
X163830000Y-59690000D03*
D11*
%TO.N,/SS_DP*%
X163830000Y-67310000D03*
%TD*%
D16*
%TO.N,GND*%
%TO.C,Q1*%
X158750000Y-96520000D03*
D17*
%TO.N,Net-(Q1-Pad2)*%
X157480000Y-96520000D03*
%TO.N,Net-(D1-Pad3)*%
X156210000Y-96520000D03*
%TD*%
D10*
%TO.N,VCC*%
%TO.C,R12*%
X160020000Y-104140000D03*
D11*
%TO.N,Net-(R12-Pad2)*%
X167640000Y-104140000D03*
%TD*%
D12*
%TO.N,VCC*%
%TO.C,J0*%
X167640000Y-109220000D03*
D13*
%TO.N,Net-(R12-Pad2)*%
X165100000Y-109220000D03*
%TO.N,GND*%
X162560000Y-109220000D03*
X160020000Y-109220000D03*
%TD*%
D14*
%TO.N,/SS_E*%
%TO.C,D1*%
X152400000Y-88777500D03*
D10*
%TO.N,/SS_D*%
X154940000Y-88777500D03*
%TO.N,Net-(D1-Pad3)*%
X157480000Y-88777500D03*
%TO.N,/SS_C*%
X160020000Y-88777500D03*
%TO.N,/SS_DP*%
X162560000Y-88777500D03*
%TO.N,/SS_B*%
X162560000Y-73537500D03*
%TO.N,/SS_A*%
X160020000Y-73537500D03*
%TO.N,Net-(D1-Pad3)*%
X157480000Y-73537500D03*
%TO.N,/SS_F*%
X154940000Y-73537500D03*
%TO.N,/SS_G*%
X152400000Y-73537500D03*
%TD*%
D16*
%TO.N,GND*%
%TO.C,Q0*%
X171450000Y-96520000D03*
D17*
%TO.N,Net-(Q0-Pad2)*%
X170180000Y-96520000D03*
%TO.N,Net-(D0-Pad3)*%
X168910000Y-96520000D03*
%TD*%
D10*
%TO.N,Net-(R2-Pad1)*%
%TO.C,R2*%
X144680000Y-59690000D03*
D11*
%TO.N,/SS_C*%
X144680000Y-67310000D03*
%TD*%
D19*
%TO.N,Net-(D0-Pad3)*%
X168910000Y-90047500D02*
X168910000Y-96520000D01*
X170180000Y-73537500D02*
X170180000Y-88777500D01*
X170180000Y-88777500D02*
X168910000Y-90047500D01*
%TO.N,Net-(D1-Pad3)*%
X156210000Y-90047500D02*
X156210000Y-96520000D01*
X157480000Y-73537500D02*
X157480000Y-88777500D01*
X157480000Y-88777500D02*
X156210000Y-90047500D01*
%TO.N,Net-(D2-Pad3)*%
X143510000Y-90047500D02*
X143510000Y-96520000D01*
X144780000Y-88777500D02*
X143510000Y-90047500D01*
X144780000Y-73537500D02*
X144780000Y-88777500D01*
%TO.N,Net-(D3-Pad3)*%
X132080000Y-73537500D02*
X132080000Y-88777500D01*
X132080000Y-88777500D02*
X130810000Y-90047500D01*
X130810000Y-90047500D02*
X130810000Y-96520000D01*
%TO.N,Net-(R12-Pad2)*%
X167640000Y-106680000D02*
X165100000Y-109220000D01*
X182000000Y-89780000D02*
X182000000Y-68970000D01*
X167640000Y-104140000D02*
X167640000Y-106680000D01*
X182000000Y-68970000D02*
X167640000Y-54610000D01*
X167640000Y-104140000D02*
X182000000Y-89780000D01*
%TD*%
M02*
