%TF.GenerationSoftware,KiCad,Pcbnew,6.0.7*%
%TF.CreationDate,2022-08-16T20:24:01-07:00*%
%TF.ProjectId,thermometer-digital-min_max-pcb,74686572-6d6f-46d6-9574-65722d646967,rev?*%
%TF.SameCoordinates,Original*%
%TF.FileFunction,Soldermask,Bot*%
%TF.FilePolarity,Negative*%
%FSLAX46Y46*%
G04 Gerber Fmt 4.6, Leading zero omitted, Abs format (unit mm)*
G04 Created by KiCad (PCBNEW 6.0.7) date 2022-08-16 20:24:01*
%MOMM*%
%LPD*%
G01*
G04 APERTURE LIST*
%ADD10C,1.600000*%
%ADD11O,1.600000X1.600000*%
%ADD12R,1.700000X1.700000*%
%ADD13O,1.700000X1.700000*%
%ADD14R,1.600000X1.600000*%
%ADD15C,2.600000*%
%ADD16C,3.800000*%
%ADD17R,1.050000X1.500000*%
%ADD18O,1.050000X1.500000*%
%ADD19C,2.000000*%
G04 APERTURE END LIST*
D10*
%TO.C,R4*%
X152400000Y-59690000D03*
D11*
X152400000Y-67310000D03*
%TD*%
D10*
%TO.C,R0*%
X137160000Y-59690000D03*
D11*
X137160000Y-67310000D03*
%TD*%
D12*
%TO.C,J1*%
X137160000Y-109220000D03*
D13*
X134620000Y-109220000D03*
%TD*%
D14*
%TO.C,D2*%
X139700000Y-88777500D03*
D10*
X142240000Y-88777500D03*
X144780000Y-88777500D03*
X147320000Y-88777500D03*
X149860000Y-88777500D03*
X149860000Y-73537500D03*
X147320000Y-73537500D03*
X144780000Y-73537500D03*
X142240000Y-73537500D03*
X139700000Y-73537500D03*
%TD*%
%TO.C,R9*%
X148590000Y-92710000D03*
D11*
X140970000Y-92710000D03*
%TD*%
D14*
%TO.C,D0*%
X165100000Y-88777500D03*
D10*
X167640000Y-88777500D03*
X170180000Y-88777500D03*
X172720000Y-88777500D03*
X175260000Y-88777500D03*
X175260000Y-73537500D03*
X172720000Y-73537500D03*
X170180000Y-73537500D03*
X167640000Y-73537500D03*
X165100000Y-73537500D03*
%TD*%
%TO.C,R1*%
X140970000Y-59690000D03*
D11*
X140970000Y-67310000D03*
%TD*%
D14*
%TO.C,U0*%
X134620000Y-54610000D03*
D11*
X137160000Y-54610000D03*
X139700000Y-54610000D03*
X142240000Y-54610000D03*
X144780000Y-54610000D03*
X147320000Y-54610000D03*
X149860000Y-54610000D03*
X152400000Y-54610000D03*
X154940000Y-54610000D03*
X157480000Y-54610000D03*
X160020000Y-54610000D03*
X162560000Y-54610000D03*
X165100000Y-54610000D03*
X167640000Y-54610000D03*
X167640000Y-46990000D03*
X165100000Y-46990000D03*
X162560000Y-46990000D03*
X160020000Y-46990000D03*
X157480000Y-46990000D03*
X154940000Y-46990000D03*
X152400000Y-46990000D03*
X149860000Y-46990000D03*
X147320000Y-46990000D03*
X144780000Y-46990000D03*
X142240000Y-46990000D03*
X139700000Y-46990000D03*
X137160000Y-46990000D03*
X134620000Y-46990000D03*
%TD*%
D10*
%TO.C,R8*%
X135890000Y-92710000D03*
D11*
X128270000Y-92710000D03*
%TD*%
D15*
%TO.C,REF\u002A\u002A*%
X197000000Y-45000000D03*
D16*
X197000000Y-45000000D03*
%TD*%
D17*
%TO.C,Q2*%
X146050000Y-96520000D03*
D18*
X144780000Y-96520000D03*
X143510000Y-96520000D03*
%TD*%
D10*
%TO.C,R10*%
X161290000Y-92710000D03*
D11*
X153670000Y-92710000D03*
%TD*%
D16*
%TO.C,REF\u002A\u002A*%
X106800000Y-45000000D03*
D15*
X106800000Y-45000000D03*
%TD*%
D10*
%TO.C,R5*%
X156210000Y-59690000D03*
D11*
X156210000Y-67310000D03*
%TD*%
D10*
%TO.C,R3*%
X148590000Y-59690000D03*
D11*
X148590000Y-67310000D03*
%TD*%
D19*
%TO.C,B0*%
X191210000Y-66040000D03*
X184710000Y-66040000D03*
X191210000Y-70540000D03*
X184710000Y-70540000D03*
%TD*%
%TO.C,B3*%
X184710000Y-91730000D03*
X191210000Y-91730000D03*
X191210000Y-96230000D03*
X184710000Y-96230000D03*
%TD*%
D10*
%TO.C,R11*%
X173990000Y-92710000D03*
D11*
X166370000Y-92710000D03*
%TD*%
D10*
%TO.C,R13*%
X130927000Y-54620000D03*
D11*
X130927000Y-47000000D03*
%TD*%
D10*
%TO.C,R6*%
X160020000Y-59690000D03*
D11*
X160020000Y-67310000D03*
%TD*%
D19*
%TO.C,B2*%
X117550000Y-91730000D03*
X111050000Y-91730000D03*
X117550000Y-96230000D03*
X111050000Y-96230000D03*
%TD*%
D15*
%TO.C,REF\u002A\u002A*%
X107000000Y-110000000D03*
D16*
X107000000Y-110000000D03*
%TD*%
D17*
%TO.C,Q3*%
X133350000Y-96520000D03*
D18*
X132080000Y-96520000D03*
X130810000Y-96520000D03*
%TD*%
D14*
%TO.C,D3*%
X127000000Y-88777500D03*
D10*
X129540000Y-88777500D03*
X132080000Y-88777500D03*
X134620000Y-88777500D03*
X137160000Y-88777500D03*
X137160000Y-73537500D03*
X134620000Y-73537500D03*
X132080000Y-73537500D03*
X129540000Y-73537500D03*
X127000000Y-73537500D03*
%TD*%
D19*
%TO.C,B1*%
X111050000Y-66040000D03*
X117550000Y-66040000D03*
X117550000Y-70540000D03*
X111050000Y-70540000D03*
%TD*%
D16*
%TO.C,REF\u002A\u002A*%
X197000000Y-110000000D03*
D15*
X197000000Y-110000000D03*
%TD*%
D10*
%TO.C,R7*%
X163830000Y-59690000D03*
D11*
X163830000Y-67310000D03*
%TD*%
D17*
%TO.C,Q1*%
X158750000Y-96520000D03*
D18*
X157480000Y-96520000D03*
X156210000Y-96520000D03*
%TD*%
D10*
%TO.C,R12*%
X160020000Y-104140000D03*
D11*
X167640000Y-104140000D03*
%TD*%
D12*
%TO.C,J0*%
X167640000Y-109220000D03*
D13*
X165100000Y-109220000D03*
X162560000Y-109220000D03*
X160020000Y-109220000D03*
%TD*%
D14*
%TO.C,D1*%
X152400000Y-88777500D03*
D10*
X154940000Y-88777500D03*
X157480000Y-88777500D03*
X160020000Y-88777500D03*
X162560000Y-88777500D03*
X162560000Y-73537500D03*
X160020000Y-73537500D03*
X157480000Y-73537500D03*
X154940000Y-73537500D03*
X152400000Y-73537500D03*
%TD*%
D17*
%TO.C,Q0*%
X171450000Y-96520000D03*
D18*
X170180000Y-96520000D03*
X168910000Y-96520000D03*
%TD*%
D10*
%TO.C,R2*%
X144680000Y-59690000D03*
D11*
X144680000Y-67310000D03*
%TD*%
M02*
